# xmcd CD database file
#
# Track frame offsets:
#	150
#	32440
#	54525
#	94290
#	111550
#	141940
#
# Disc length: 2400 seconds
#
# Revision: 0
# Processed by: cddbd v1.5.1PL0 Copyright (c) Steve Scherf et al.
# Submitted via: CDex 1.51
#
DISCID=52095e06
DTITLE=Masaru Imada - Carnival
DYEAR=1981
DGENRE=Jazz
TTITLE0=Carnival
TTITLE1=Ripples In Recife
TTITLE2=Sea Weeds
TTITLE3=Surf Dance
TTITLE4=Sunset Walk
TTITLE5=Gentle Breeze
EXTD=YEAR: 1981
EXTT0=
EXTT1=
EXTT2=
EXTT3=
EXTT4=
EXTT5=
PLAYORDER=
